Coordinates
version=1
nRows=17
nColumns=40
inDegrees=yes

Units are S.I. units (second, meters, Newtons, ...)
If the header above contains a line with 'inDegrees', this indicates whether rotational values are in degrees (yes) or radians (no).

endheader
time	pelvis_tilt	pelvis_list	pelvis_rotation	pelvis_tx	pelvis_ty	pelvis_tz	hip_flexion_r	hip_adduction_r	hip_rotation_r	knee_angle_r	knee_angle_r_beta	ankle_angle_r	subtalar_angle_r	mtp_angle_r	hip_flexion_l	hip_adduction_l	hip_rotation_l	knee_angle_l	knee_angle_l_beta	ankle_angle_l	subtalar_angle_l	mtp_angle_l	lumbar_extension	lumbar_bending	lumbar_rotation	arm_flex_r	arm_add_r	arm_rot_r	elbow_flex_r	pro_sup_r	wrist_flex_r	wrist_dev_r	arm_flex_l	arm_add_l	arm_rot_l	elbow_flex_l	pro_sup_l	wrist_flex_l	wrist_dev_l
     10.40000000	     -6.68762618	     -4.80085118	      1.84988540	     -0.24330936	      1.16942406	     -0.02105450	     66.83003700	     -7.62998998	     -7.72621625	     79.51365735	      1.38777512	     10.86302420	      0.15465087	      0.00000000	     50.55705085	    -11.20488057	      6.31056905	     87.53576619	      1.52778733	      6.97951343	     -9.78169345	      0.00000000	    -65.88168888	      4.42897577	      4.67207334	     89.78171901	    -17.37624935	     63.21887911	     35.10993539	     58.67927717	      0.00000000	      0.00000000	     85.54722440	    -13.37684541	     36.80294050	     37.40752572	     57.92720138	      0.00000000	      0.00000000
     10.40833333	     -6.36801831	     -4.69534806	      1.97853603	     -0.24273994	      1.16987850	     -0.02104204	     65.26618058	     -7.56452215	     -7.87815759	     77.68000225	      1.35577180	     10.37466682	      0.26658160	      0.00000000	     51.20197373	    -11.13212104	      6.52051465	     89.45783680	      1.56133379	      7.38401732	     -9.53456644	      0.00000000	    -66.17711576	      4.38302995	      4.50328265	     89.77603878	    -17.29416742	     63.25756707	     34.87631031	     58.73735703	      0.00000000	      0.00000000	     85.63108508	    -13.44058782	     37.13330062	     37.28580762	     57.99876504	      0.00000000	      0.00000000
     10.41666667	     -6.26387057	     -4.27372458	      2.01829077	     -0.24243786	      1.17015153	     -0.02135868	     63.99567310	     -7.65669186	     -7.67766976	     75.86846133	      1.32415445	      9.90306631	      0.33313298	      0.00000000	     51.92727223	    -10.73965542	      6.45255157	     91.17512466	      1.59130612	      7.78269268	     -9.44967562	      0.00000000	    -66.26799193	      4.13834580	      4.08184574	     89.76383156	    -17.27727884	     63.26968418	     34.82605467	     58.74473545	      0.00000000	      0.00000000	     85.69227015	    -13.47708923	     37.26859322	     37.31686908	     58.00892029	      0.00000000	      0.00000000
     10.42500000	     -5.92349742	     -4.40466174	      2.26128924	     -0.24176419	      1.17076507	     -0.02136686	     62.20864718	     -7.45570008	     -7.95171381	     74.02220521	      1.29193120	      9.56300485	      0.35531707	      0.00000000	     52.59923257	    -10.73823906	      6.93210650	     92.97902393	      1.62279010	      8.38537841	     -9.07776639	      0.00000000	    -66.59836783	      4.29150299	      4.10344569	     89.76340340	    -17.21966846	     63.49796605	     34.66106007	     58.00751449	      0.00000000	      0.00000000	     85.79867372	    -13.53212194	     37.78349628	     37.43110598	     56.87167645	      0.00000000	      0.00000000
     10.43333333	     -5.87623802	     -3.94848393	      2.29323851	     -0.24147756	      1.17092318	     -0.02166181	     61.00398842	     -7.53456861	     -7.66496962	     72.21603411	      1.26040757	      9.03394526	      0.42173230	      0.00000000	     53.43812163	    -10.33213240	      6.81848762	     94.64455191	      1.65185905	      8.73202023	     -8.97676721	      0.00000000	    -66.63282456	      4.01630395	      3.64651330	     89.74814767	    -17.22832723	     63.48378398	     34.64481125	     58.02984795	      0.00000000	      0.00000000	     85.86129727	    -13.56276763	     37.91541327	     37.45743144	     56.93795498	      0.00000000	      0.00000000
     10.44166667	     -5.80480884	     -3.55741725	      2.35970895	     -0.24106021	      1.17105829	     -0.02192429	     59.66607099	     -7.65059955	     -7.58992121	     70.32987631	      1.22748790	      8.42565595	      0.48580744	      0.00000000	     54.30020699	     -9.97494898	      6.73321367	     96.32508774	      1.68118993	      9.18053526	     -8.91139418	      0.00000000	    -66.69050875	      3.79557000	      3.23967399	     89.72988960	    -17.21713857	     63.51702457	     34.55279035	     58.02803195	      0.00000000	      0.00000000	     85.92247039	    -13.61371542	     38.11330317	     37.51629053	     57.00719101	      0.00000000	      0.00000000
     10.45000000	     -5.83954331	     -3.83234906	      2.53833223	     -0.24096882	      1.17113126	     -0.02168090	     58.14702533	     -7.18031543	     -7.84168237	     68.16339869	      1.18967574	      7.76833954	      0.37088398	      0.00000000	     55.53755084	    -10.06342846	      7.31271924	     98.09071595	      1.71200596	      9.70013158	     -8.56097944	      0.00000000	    -66.63981001	      3.97220500	      3.41418914	     89.73668260	    -17.17038657	     63.72636787	     34.29790374	     57.64952962	      0.00000000	      0.00000000	     86.04280492	    -13.64718810	     38.72009510	     37.49729945	     56.76017191	      0.00000000	      0.00000000
     10.45833333	     -5.81818445	     -3.39361524	      2.57690943	     -0.24057538	      1.17124129	     -0.02193760	     56.84895309	     -7.30023343	     -7.77043596	     66.37231729	      1.15841547	      7.40850011	      0.20616274	      0.00000000	     56.43432584	     -9.66749726	      7.15522451	     99.63861208	      1.73902184	     10.19281942	     -8.50394624	      0.00000000	    -66.64883996	      3.70496816	      2.96164275	     89.71771587	    -17.17314761	     63.61646739	     34.26847179	     57.57839010	      0.00000000	      0.00000000	     86.08181551	    -13.66281938	     38.78728912	     37.52088040	     56.79709478	      0.00000000	      0.00000000
     10.46666667	     -5.52702147	     -3.93387855	      2.81747541	     -0.23984772	      1.17180850	     -0.02141840	     54.86527135	     -6.60967503	     -8.32848732	     64.19417353	      1.12039969	      6.80458731	     -0.50482954	      0.00000000	     57.41817793	     -9.97950958	      8.07970627	    101.29830176	      1.76798889	     10.86315365	     -7.79927505	      0.00000000	    -66.92527660	      4.03767280	      3.36636168	     89.72151684	    -17.06255298	     63.71194229	     34.01831721	     57.02571104	      0.00000000	      0.00000000	     86.13981958	    -13.68782340	     39.09117647	     37.53505563	     56.92916659	      0.00000000	      0.00000000
     10.47500000	     -5.49211141	     -3.49410218	      2.83006298	     -0.23935567	      1.17182413	     -0.02152565	     53.52587924	     -6.78684704	     -8.21147229	     62.51277761	      1.09105379	      6.43520006	     -0.35650029	      0.00000000	     58.40165723	     -9.68800874	      7.84982314	    102.82814195	      1.79468964	     11.32683476	     -7.79580660	      0.00000000	    -66.93882079	      3.72491380	      2.93347398	     89.68842739	    -17.10436075	     63.80806102	     33.99266590	     56.95453678	      0.00000000	      0.00000000	     86.18866998	    -13.67163590	     39.19027037	     37.55993569	     56.95128010	      0.00000000	      0.00000000
     10.48333333	     -5.43094632	     -3.07149739	      2.92183046	     -0.23877344	      1.17175183	     -0.02201536	     52.20881730	     -6.91926455	     -7.95627880	     60.83832116	      1.06182902	      6.04092079	     -0.25674333	      0.00000000	     59.34839881	     -9.29609589	      7.63483951	    104.26667655	      1.81979681	     11.53568282	     -7.66421292	      0.00000000	    -66.95717636	      3.53209629	      2.48544724	     89.64604151	    -17.11334782	     63.90589830	     33.91931849	     56.89906651	      0.00000000	      0.00000000	     86.16802489	    -13.67001623	     39.31494678	     37.57728530	     56.97314298	      0.00000000	      0.00000000
     10.49166667	     -4.97736508	     -3.39277325	      3.29181519	     -0.23779084	      1.17261674	     -0.02197927	     50.07382373	     -6.62422666	     -8.62677881	     58.89527098	      1.02791639	      5.58755905	     -0.22681447	      0.00000000	     60.08925896	     -9.32067520	      8.34701148	    105.69614462	      1.84474573	     11.80112312	     -7.00942553	      0.00000000	    -67.39040341	      3.87252877	      2.61275324	     89.67313228	    -16.96277646	     64.35138601	     33.43356316	     56.41538172	      0.00000000	      0.00000000	     86.25017221	    -13.74130208	     39.68392458	     37.61685802	     57.01158154	      0.00000000	      0.00000000
     10.50000000	     -5.03674097	     -2.95856514	      3.33240060	     -0.23746863	      1.17254219	     -0.02215370	     48.79418007	     -6.71442694	     -8.38689943	     57.22542989	      0.99877217	      5.34907921	     -0.26843805	      0.00000000	     61.14606807	     -8.91385139	      8.15159114	    106.94454386	      1.86653441	     12.17707740	     -6.91745917	      0.00000000	    -67.31825467	      3.59553346	      2.16630889	     89.63271905	    -17.01808921	     64.46342789	     33.44165675	     56.33991246	      0.00000000	      0.00000000	     86.29150217	    -13.71055840	     39.75306584	     37.63879298	     57.01499876	      0.00000000	      0.00000000
     10.50833333	     -5.00011947	     -2.59935907	      3.39133130	     -0.23691678	      1.17253411	     -0.02238354	     47.41796446	     -6.77713707	     -8.21623832	     55.67520519	      0.97171564	      5.11127595	     -0.29890112	      0.00000000	     62.19392250	     -8.72063003	      7.91016453	    108.22264330	      1.88884145	     12.30056391	     -6.75301103	      0.00000000	    -67.32920048	      3.37821145	      1.78854792	     89.58558312	    -17.04255728	     64.60179978	     33.35697277	     56.26066880	      0.00000000	      0.00000000	     86.29780562	    -13.70310359	     39.86641381	     37.67279992	     57.02571296	      0.00000000	      0.00000000
     10.51666667	     -4.45616361	     -2.98409472	      3.65740971	     -0.23574915	      1.17344259	     -0.02210509	     45.21868120	     -6.24219040	     -8.74649657	     53.86434042	      0.94011009	      4.77652280	     -0.63860308	      0.00000000	     62.91385992	     -8.87225286	      8.63664522	    109.47339189	      1.91067113	     13.14948701	     -6.47106491	      0.00000000	    -67.83539877	      3.65951536	      2.02827316	     89.60187126	    -16.92960866	     65.08666410	     32.99530153	     55.68818550	      0.00000000	      0.00000000	     86.31397652	    -13.73945038	     40.11452573	     37.76331674	     56.87508795	      0.00000000	      0.00000000
     10.52500000	     -4.54098353	     -2.57276032	      3.69864780	     -0.23550190	      1.17327302	     -0.02230463	     44.06554507	     -6.36983317	     -8.51605263	     52.49270653	      0.91617056	      4.57883273	     -0.67347779	      0.00000000	     64.07797016	     -8.56711761	      8.34835955	    110.54953734	      1.92945341	     13.41567852	     -6.38713700	      0.00000000	    -67.73972705	      3.40579556	      1.61518833	     89.54807747	    -16.98992895	     65.11735563	     33.02393938	     55.61571502	      0.00000000	      0.00000000	     86.34181831	    -13.71195343	     40.19969060	     37.76255565	     56.86445478	      0.00000000	      0.00000000
     10.53333333	     -4.61688823	     -2.19668034	      3.74086468	     -0.23516156	      1.17314451	     -0.02259110	     42.91175769	     -6.50219665	     -8.35289500	     51.17687825	      0.89320503	      4.35230286	     -0.71543589	      0.00000000	     65.23728073	     -8.31286944	      8.04672416	    111.56182292	      1.94712113	     13.61341839	     -6.31691879	      0.00000000	    -67.64724685	      3.18046216	      1.23651554	     89.48139607	    -17.03471999	     65.17579206	     33.00735989	     55.55423999	      0.00000000	      0.00000000	     86.32780935	    -13.68783272	     40.30605447	     37.76427404	     56.86163231	      0.00000000	      0.00000000
